<svg width="640" height="480" xmlns="http://www.w3.org/2000/svg">
 <!-- Created with SVG Editor - http://github.com/mzalive/SVG Editor/ -->

 <g>
  <title>background</title>
  <rect fill="none" id="canvas_background" height="482" width="642" y="-1" x="-1"/>
 </g>
 <g>
  <title>Layer 1</title>
  <g stroke="null" transform="matrix(0.7743580515100167,0,0,0.7794440549180532,75.16771213478381,39.186976459843834) " id="svg_4">
   <g stroke="null" id="svg_5">
    <path stroke="null" fill="#ffffff" id="svg_6" d="m263.012636,247.757099c0,2.3 1.8,4.1 4.1,4.1l67.6,0c2.3,0 4.1,-1.8 4.1,-4.1l0,-29.5c4.6,-7.1 7.3,-15.5 7.3,-24.5c0,-9 -2.7,-17.4 -7.3,-24.5l0,-29.5c0,-2.3 -1.8,-4.1 -4.1,-4.1l-67.6,0c-2.3,0 -4.1,1.8 -4.1,4.1l0,29.5c-4.6,7.1 -7.3,15.5 -7.3,24.5c0,9 2.7,17.4 7.3,24.5l0,29.5zm67.6,-4.1l-59.4,0l0,-16c7.9,7 18.3,11.2 29.7,11.2c11.4,0 21.8,-4.3 29.7,-11.2l0,16zm-59.4,-99.8l59.4,0l0,16c-7.9,-7 -18.3,-11.2 -29.7,-11.2c-11.4,0 -21.8,4.3 -29.7,11.2l0,-16zm29.7,12.9c20.4,0 37,16.6 37,37c0,20.4 -16.6,37 -37,37c-20.4,0 -37,-16.6 -37,-37c0,-20.4 16.6,-37 37,-37z"/>
    <path stroke="null" fill="#ffffff" id="svg_7" d="m300.912636,197.857099l14.7,0c2.3,0 4.1,-1.8 4.1,-4.1c0,-2.3 -1.8,-4.1 -4.1,-4.1l-10.6,0l0,-17.2c0,-2.3 -1.8,-4.1 -4.1,-4.1c-2.3,0 -4.1,1.8 -4.1,4.1l0,21.3c0,2.3 1.8,4.1 4.1,4.1z"/>
   </g>
  </g>
 </g>
</svg>