<?xml version="1.0" encoding="UTF-8"?>
<!DOCTYPE svg PUBLIC "-//W3C//DTD SVG 1.1//EN" "http://www.w3.org/Graphics/SVG/1.1/DTD/svg11.dtd">
<!-- Creator: CorelDRAW 2018 (64-Bit) -->
<svg xmlns="http://www.w3.org/2000/svg" xml:space="preserve" width="297mm" height="210mm" version="1.1" style="shape-rendering:geometricPrecision; text-rendering:geometricPrecision; image-rendering:optimizeQuality; fill-rule:evenodd; clip-rule:evenodd"
viewBox="0 0 29700 21000"
 xmlns:xlink="http://www.w3.org/1999/xlink">
 <defs>
  <style type="text/css">
   <![CDATA[
    .fil0 {fill:#333333}
    .fil1 {fill:#4D4D4D;fill-rule:nonzero}
   ]]>
  </style>
 </defs>
 <g id="Слой_x0020_1">
  <metadata id="CorelCorpID_0Corel-Layer"/>
  <path class="fil0" d="M9499.54 12927.94l0 2179.99c0,115.27 -28.83,201.79 -86.01,258.03 -58.12,57.15 -159.22,86.01 -301.96,86.01l-215.96 0 0 252.57 1899.64 0 0 -252.57 -215.96 0c-115.27,0 -208.67,-29.29 -279.99,-86.01 -71.35,-56.68 -107.98,-142.74 -107.98,-258.03l0 -2468.83 -691.78 288.84z"/>
  <path class="fil0" d="M12347.85 12717.32l0 2394.25c0,113.45 -29.29,197.66 -86.01,254.39 -56.71,56.72 -157.4,86.01 -300.14,86.01l-900.4 0 0 252.57 3177.02 0 0 -252.57 -900.4 0c-115.3,0 -206.82,-29.29 -278.16,-86.01 -71.35,-56.71 -107.98,-142.74 -107.98,-256.21l0 -2392.43 -603.93 0z"/>
  <path class="fil0" d="M15190.65 12639.1l0 2468.83c0,115.29 -29.3,201.3 -86.01,258.03 -56.74,56.74 -157.4,86.01 -300.14,86.01l-300.14 0 0 252.57 2064.33 0 0 -252.57 -300.12 0c-115.29,0 -206.79,-29.27 -278.19,-86.01 -71.37,-56.73 -107.95,-142.74 -107.95,-258.03l0 -2468.83 -691.78 0z"/>
  <path class="fil0" d="M12219.74 8799.49c-228.74,42.08 -472.15,62.23 -730.19,58.56l-428.25 5.49 0 254.37 900.4 27.47c142.74,0 242.97,36.94 300.14,107.96 56.28,69.88 86.01,162.92 86.01,276.36l0 1674.67 603.93 0 0 -2637.3 -86.01 0c-201.32,113.45 -417.26,190.32 -646.03,232.42z"/>
  <path class="fil0" d="M12300.28 7154.25c115.29,115.29 245.22,172.03 387.96,172.03 142.75,0 272.7,-56.74 387.97,-172.03 115.3,-115.3 172.04,-243.41 172.04,-388 0,-142.74 -56.74,-265.35 -172.04,-366.02 -115.27,-100.63 -245.22,-150.05 -387.97,-150.05 -142.74,0 -272.67,49.42 -387.96,150.05 -115.3,100.67 -172.04,223.28 -172.04,366.02 0,144.59 56.74,272.7 172.04,388z"/>
  <path class="fil0" d="M15190.65 6923.65l0 4280.72 691.78 0 0 -979.24 1326.8 0c570.99,0 1065.11,-172.03 1478.7,-514.25 413.62,-342.25 620.41,-841.84 620.41,-1498.86 0,-543.52 -192.16,-991.9 -578.31,-1348.75 -386.14,-356.88 -937,-536.23 -1652.56,-536.23l-2531.01 0 0 252.54 258.04 0c142.74,0 243.43,29.3 300.14,86.03 56.71,56.72 86.01,142.8 86.01,258.04zm691.78 3048.91l0 -3048.91c0,-115.29 36.58,-201.3 107.95,-258.04 71.4,-56.73 162.9,-86.03 278.19,-86.03l600.26 0c600.28,0 1035.82,135.43 1306.7,408.13 272.67,272.67 408.09,693.6 408.09,1266.41 0,629.55 -164.72,1074.26 -492.3,1332.29 -329.41,258.04 -708.24,386.15 -1136.46,386.15l-1072.43 0z"/>
  <path class="fil0" d="M19492.24 9886.49c-161.75,228.79 -298.1,465.45 -409.15,710.09l760.6 0c86.17,-235.53 193.29,-443.57 321.3,-624.06 389.99,-549.85 832.43,-826.08 1329.58,-826.08 531.39,0 985.2,276.23 1356.94,826.08 371.73,549.85 558.76,1355.09 558.76,2415.71 0,979.82 -168.79,1745.98 -506.32,2295.85 -335.23,549.83 -807.31,826.04 -1409.38,826.04 -531.37,0 -985.2,-255.34 -1356.92,-766.11 -341.82,-467.25 -527.44,-1170.24 -555.11,-2104.91l-856.72 0c49.58,844.43 304.52,1574.97 766.42,2193.51 515.43,690.53 1183.61,1037.14 2002.33,1037.14 784.52,0 1441.32,-336.16 1977.25,-1008.52 533.67,-669.68 800.48,-1516.63 800.48,-2532.97 0,-896.42 -248.58,-1709.51 -748.01,-2441.77 -499.47,-732.27 -1174.5,-1099.68 -2029.72,-1099.68 -818.72,0 -1486.9,367.41 -2002.33,1099.68z"/>
  <path class="fil1" d="M20599.29 10856.33c-52,66.15 -128.1,202.66 -227.14,408.77l23.33 0c166.72,-220.26 249.7,-356.77 249.7,-408.77l-45.89 0z"/>
  <path class="fil1" d="M20599.29 10743.14l22.56 0 68.45 45.89c0,102.09 -151.43,359.06 -453.89,770.5 -5.36,53.92 -16.45,110.13 -33.65,169.4 -15.68,47.8 -80.31,203.43 -193.87,466.9l0 22.56c25.62,14.91 63.47,22.56 114.33,22.56l0 45.88c-34.42,0 -64.62,7.27 -90.63,22.18l-90.62 -68.06 171.31 -460.4 32.5 -130.01 -22.56 0c-81.45,152.19 -149.51,243.2 -204.96,273.41l-22.56 0 0 -23.71c277.99,-337.65 450.07,-610.29 516.6,-817.92 29.83,-29.83 77.25,-135.37 142.25,-317l44.74 -22.18z"/>
  <path class="fil1" d="M19084.87 11946.13l-18.74 133.45c12.62,88.71 31.74,133.07 56.97,133.07 24.09,-4.2 74.57,-61.56 152.19,-171.31 -53.53,0 -117.01,-31.74 -190.42,-95.21zm57.35 -113.19l0 94.07c25.24,50.86 63.48,76.48 114.34,76.48 100.56,-108.6 151.04,-209.55 151.04,-303.62l0 -57.36c-94.07,0 -150.66,31.74 -170.16,95.22 -34.42,0 -66.16,31.74 -95.22,95.21zm209.55 -247.4l36.71 0c18.74,0 37.86,19.12 57.36,56.97l0 133.46c-50.86,187.37 -76.1,288.7 -76.1,303.61 19.12,50.86 38.24,76.1 56.98,76.1l76.09 0c101.72,-67.3 184.31,-111.66 247.79,-133.46 -119.69,126.96 -227.52,190.43 -323.88,190.43 -62.71,-14.15 -94.07,-65 -94.07,-152.19 -103.24,126.95 -160.22,190.43 -171.31,190.43l-57.36 0c-20.26,0 -45.5,-25.24 -76.09,-76.09l0 -57.36c32.12,-354.48 139.95,-531.9 323.88,-531.9z"/>
  <path class="fil1" d="M18480.13 11578.65l31.36 0c40.53,6.12 60.8,26.39 60.8,60.42 -142.63,81.45 -244.73,183.55 -305.91,305.91l-30.21 153.72 0 60.42 91.77 0c133.07,-76.86 295.59,-209.55 488.31,-397.68l31.35 0c-236.69,326.17 -440.5,489.45 -611.43,489.45l-92.16 -183.55c100.19,-239.75 212.23,-402.65 336.12,-488.69z"/>
  <path class="fil1" d="M18755.83 11211.18l30.21 0 0 61.56c-68.06,0 -108.6,61.19 -121.98,182.79l-30.21 0 -61.56 -91.78 0 -60.8c19.88,-61.18 81.06,-91.77 183.54,-91.77z"/>
  <path class="fil1" d="M17402.77 11921.66c0,24.47 24.85,50.09 74.95,76.09l0 -100.95c-32.12,16.44 -57.36,24.86 -74.95,24.86z"/>
  <path class="fil1" d="M17907.9 10909.86c33.65,0 50.48,25.62 50.48,76.09 -151.81,169.02 -278,438.6 -378.95,809.14l24.86 0 430.18 -75.34 0 50.48c-354.09,38.24 -531.13,122.36 -531.13,253.14 0,151.81 -16.83,227.52 -50.48,227.52 -22.18,0 -56.21,-84.51 -101.71,-253.14 -23.33,-0.76 -56.98,-42.83 -100.95,-126.57l0 -24.86c202.28,0 303.61,-58.88 303.61,-177.04 96.36,-294.82 214.52,-547.96 354.09,-759.42z"/>
  <path class="fil1" d="M16275.7 11592.04l93.3 0 0 31.35c0,48.57 -72.27,182.78 -216.43,402.27l0 30.21c231.72,-206.1 365.56,-308.97 402.27,-308.97l30.21 61.57c-20.27,112.04 -30.21,204.96 -30.21,278.76 0,29.06 30.59,60.03 91.77,92.92 82.98,0 217.2,-20.65 402.27,-62.71l31.36 0 0 31.35c-159.07,61.95 -303.62,93.31 -433.63,93.31 -123.13,0 -184.69,-82.6 -184.69,-247.79 19.88,-35.95 30.21,-77.24 30.21,-124.28 -31.36,0 -196.17,144.55 -494.05,433.63l-31.35 0c0,-39.77 102.86,-276.85 308.97,-711.62z"/>
  <path class="fil1" d="M15616.28 11582.1c88.71,37.47 137.28,76.09 145.69,116.62 -97.89,161.37 -233.26,277.23 -406.86,348.36 -37.86,19.5 -66.92,29.06 -87.18,29.06l-29.06 -58.12c235.93,-124.28 371.29,-221.02 406.47,-290.23l0 -29.07c-290.23,51.24 -435.54,167.49 -435.54,348.36l0 58.12c0,58.12 38.62,87.57 116.25,87.57l581.61 -116.63 29.06 0 0 29.06c-306.29,97.13 -490.22,145.69 -552.17,145.69l-29.44 0c-114.72,0 -192.34,-58.12 -232.87,-174.75 0,-197.31 164.81,-361.74 494.04,-494.04z"/>
  <path class="fil1" d="M14325.93 11921.66c0,24.47 24.85,50.09 74.95,76.09l0 -100.95c-32.12,16.44 -57.36,24.86 -74.95,24.86zm505.13 -1011.8c33.65,0 50.48,25.62 50.48,76.09 -151.81,169.02 -278,438.6 -378.95,809.14l24.86 0 430.18 -75.34 0 50.48c-354.09,38.24 -531.13,122.36 -531.13,253.14 0,151.81 -16.83,227.52 -50.48,227.52 -22.18,0 -56.21,-84.51 -101.71,-253.14 -23.33,-0.76 -56.98,-42.83 -100.95,-126.57l0 -24.86c202.28,0 303.61,-58.88 303.61,-177.04 96.36,-294.82 214.52,-547.96 354.09,-759.42z"/>
  <path class="fil1" d="M13406.5 11718.61l88.33 118.92c-118.16,39.39 -177.05,78.77 -177.05,117.78l0 30.2 88.72 117.4 -58.51 0 -89.48 -59.27 -29.06 59.27 0 30.2c0,39.01 29.45,58.51 88.33,58.51 160.61,0 308.59,-108.22 443.57,-325.03 -25.24,-98.65 -54.68,-147.98 -88.33,-147.98l-266.52 0zm176.66 -117.39c109.36,0 198.08,68.82 266.91,207.25 -115.1,294.82 -302.09,442.42 -561.35,442.42l-59.27 0c-45.12,0 -74.56,-49.33 -88.71,-147.98 72.65,-315.09 190.43,-472.63 354.09,-472.63 0,-19.51 29.44,-29.06 88.33,-29.06z"/>
  <path class="fil1" d="M12591.07 11556.48c169.39,50.47 254.28,110.12 254.28,177.81l0 50.47c-168.25,239.76 -388.5,400.74 -661.14,482.96 0,-16.45 -8.03,-24.86 -24.48,-24.86 -173.98,682.18 -309.73,1080.24 -406.86,1194.58 0,-17.21 -8.41,-26.01 -25.62,-26.01 147.22,-395 316.62,-911.99 508.58,-1550.57l76.09 0c-85.27,220.63 -127.71,339.17 -127.71,356.38l25.62 0c133.07,-25.24 328.08,-169.4 585.05,-432.48 0,-91.01 -93.31,-150.28 -280.29,-178.19 -282.2,0 -494.05,93.68 -635.15,280.29l-25.62 0 0 -102.1c177.81,-152.19 423.31,-228.28 737.25,-228.28z"/>
  <path class="fil1" d="M10552.87 10469.73l62.71 0c42.06,6.5 62.71,27.53 62.71,62.71 -94.06,44.74 -303.99,516.23 -629.4,1414.83l283.34 -250.84c41.68,5.74 62.71,26.77 62.71,62.71l0 31.36 -31.35 188.13c31.35,84.51 62.71,126.57 94.07,126.57l440.51 -283.35 0 31.36c-198.08,209.93 -355.24,314.7 -471.87,314.7 -83.74,0 -125.42,-115.48 -125.42,-346.06 -50.09,14.15 -196.93,181.64 -440.13,502.84l-31.35 0 0 -31.36 723.47 -1823.6z"/>
  <path class="fil1" d="M9087.77 12655.46c-504.37,801.86 -756.36,1273.34 -756.36,1413.68 427.13,-561.73 687.53,-1024.8 780.83,-1389.21l0 -24.47 -24.47 0zm-24.85 -512.02l73.8 48.18 97.5 -73.04 -24.47 -170.16 0 -98.65 -24.85 0c-81.07,68.06 -121.98,165.95 -121.98,293.67zm219.49 -391.18l-23.33 122.36 23.33 171.31c42.82,0 75.33,-57.36 97.5,-171.31 -31.35,-74.18 -63.85,-114.71 -97.5,-122.36zm74.18 -170.16l23.32 0c32.89,0 49.33,24.09 49.33,72.65l-49.33 97.51c28.3,0 53.16,40.91 74.19,122.36 0,28.3 -48.95,125.81 -146.84,292.14 0,49.33 -16.06,106.69 -48.18,171.31l23.33 0c270.34,-276.08 433.24,-414.12 488.69,-414.12 -410.31,365.18 -637.83,698.24 -683.33,999.18 -85.27,286.79 -369.77,741.83 -853.87,1365.5 -31.35,16.44 -55.44,24.85 -72.65,24.85l0 -49.32c188.9,-497.49 529.99,-1107.01 1023.65,-1828.58 16.44,-26.76 24.85,-67.3 24.85,-121.98l0 -97.51 -49.33 24.86c-97.12,0 -145.69,-48.95 -145.69,-146.84 0,-143.39 113.96,-313.94 341.86,-512.01z"/>
  <path class="fil1" d="M8483.8 11578.65l31.36 0c40.53,6.12 60.8,26.39 60.8,60.42 -142.63,81.45 -244.73,183.55 -305.91,305.91l-30.21 153.72 0 60.42 91.77 0c133.07,-76.86 295.59,-209.55 488.31,-397.68l31.35 0c-236.69,326.17 -440.5,489.45 -611.43,489.45l-92.16 -183.55c100.19,-239.75 212.23,-402.65 336.12,-488.69z"/>
  <path class="fil1" d="M8759.5 11211.18l30.21 0 0 61.56c-68.06,0 -108.6,61.19 -121.98,182.79l-30.21 0 -61.56 -91.78 0 -60.8c19.88,-61.18 81.06,-91.77 183.54,-91.77z"/>
  <path class="fil1" d="M7682.14 10469.73l62.71 0c42.06,6.5 62.71,27.53 62.71,62.71 -94.06,44.74 -303.99,516.23 -629.4,1414.83l283.34 -250.84c41.68,5.74 62.71,26.77 62.71,62.71l0 31.36 -31.35 188.13c31.35,84.51 62.71,126.57 94.07,126.57l440.51 -283.35 0 31.36c-198.08,209.93 -355.24,314.7 -471.87,314.7 -83.74,0 -125.42,-115.48 -125.42,-346.06 -50.09,14.15 -196.93,181.64 -440.13,502.84l-31.35 0 0 -31.36 723.47 -1823.6z"/>
  <path class="fil0" d="M6628.13 12639.1l0 -2710.44 2871.41 0 0 1179.44 691.78 0 0 -4184.45c0,-115.29 36.63,-201.32 107.98,-258.04 71.34,-56.71 164.69,-86.03 279.99,-86.03l172.03 0 0 -252.54 -1811.78 0 0 252.54 172.03 0c144.56,0 245.23,29.32 301.96,86.03 56.72,56.74 86.01,142.77 86.01,258.04l0 2752.44 -2871.41 0 0 -2752.44c0,-115.29 36.61,-201.3 107.98,-258.04 71.37,-56.73 164.72,-86.03 280.02,-86.03l172 0 0 -252.54 -1811.78 0 0 252.54 172.03 0c144.59,0 245.23,29.3 301.97,86.03 56.71,56.72 86.03,142.77 86.03,258.04l0 5715.45 0 2468.83c0,115.29 -29.29,201.3 -86.03,258.03 -58.56,56.74 -159.22,86.01 -301.97,86.01l-215.93 0 0 252.57 1899.61 0 0 -252.57 -215.93 0c-115.3,0 -208.65,-29.27 -280.02,-86.01 -71.37,-56.73 -107.98,-142.74 -107.98,-258.03l0 -2468.83z"/>
 </g>
</svg>
