<?xml version="1.0" encoding="UTF-8" standalone="no" ?>
<!DOCTYPE svg PUBLIC "-//W3C//DTD SVG 1.1//EN" "http://www.w3.org/Graphics/SVG/1.1/DTD/svg11.dtd">
<svg xmlns="http://www.w3.org/2000/svg" xmlns:xlink="http://www.w3.org/1999/xlink" version="1.1" width="400" height="400" viewBox="0 0 400 400" xml:space="preserve">
<desc>Created with Fabric.js 3.6.2</desc>
<defs>
</defs>
<g transform="matrix(0.39 0 0 0.39 200 216.68)" id="_x33__x2C_business_x2C_meeting_x2C_strategy_x2C_office"  >
<path style="stroke: none; stroke-width: 1; stroke-dasharray: none; stroke-linecap: butt; stroke-dashoffset: 0; stroke-linejoin: miter; stroke-miterlimit: 4; fill: rgb(0,0,0); fill-rule: nonzero; opacity: 1;"  transform=" translate(-256, -298.69)" d="M 490.842 261.316 h -58.065 c -4.059 -26.609 -31.521 -47.256 -64.694 -47.256 c -33.175 0 -60.638 20.646 -64.695 47.256 H 263.68 v -42.848 c -0.013 -0.049 -0.035 -0.092 -0.047 -0.143 c -6.242 -27.953 -36.15 -40.961 -61.297 -41.217 c -23.025 -0.24 -52.569 10.346 -60.292 40.875 v 43.332 H 21.159 c -2.209 0 -4 1.791 -4 4 s 1.791 4 4 4 h 38.181 v 146.967 c 0 2.209 1.791 4 4 4 s 4 -1.791 4 -4 V 269.316 h 74.704 v 30.621 c 0.094 0.201 0.183 0.408 0.244 0.629 c 2.956 10.658 8.578 15.975 18.104 17.02 v -85.953 c 0 -4.402 3.557 -7.979 7.959 -8 l 68.939 -0.35 c 0.014 0 0.027 0 0.041 0 c 2.114 0 4.143 0.838 5.643 2.33 c 1.509 1.5 2.357 3.541 2.357 5.67 v 85.887 c 9.633 -0.949 15.337 -6.174 18.349 -16.74 v -31.113 h 180.967 v 146.967 c 0 2.209 1.791 4 4 4 s 4 -1.791 4 -4 V 269.316 h 38.195 c 2.209 0 4 -1.791 4 -4 S 493.051 261.316 490.842 261.316 z" stroke-linecap="round" />
</g>
<g transform="matrix(0.39 0 0 0.39 179.24 230.87)" id="_x33__x2C_business_x2C_meeting_x2C_strategy_x2C_office"  >
<polygon style="stroke: none; stroke-width: 1; stroke-dasharray: none; stroke-linecap: butt; stroke-dashoffset: 0; stroke-linejoin: miter; stroke-miterlimit: 4; fill: rgb(0,0,0); fill-rule: nonzero; opacity: 1;"  points="-34.47,103.73 34.47,103.73 34.47,-103.73 -34.47,-103.38 " />
</g>
<g transform="matrix(0.39 0 0 0.39 179.74 143.61)" id="_x33__x2C_business_x2C_meeting_x2C_strategy_x2C_office"  >
<path style="stroke: none; stroke-width: 1; stroke-dasharray: none; stroke-linecap: butt; stroke-dashoffset: 0; stroke-linejoin: miter; stroke-miterlimit: 4; fill: rgb(0,0,0); fill-rule: nonzero; opacity: 1;"  transform=" translate(-204.14, -111.63)" d="M 204.142 150.826 c 21.612 0 39.195 -17.576 39.195 -39.18 c 0 -21.621 -17.583 -39.209 -39.195 -39.209 s -39.195 17.588 -39.195 39.209 C 164.947 133.25 182.529 150.826 204.142 150.826 z" stroke-linecap="round" />
</g>
<g transform="matrix(0.39 0 0 0.39 244.34 162.44)" id="_x33__x2C_business_x2C_meeting_x2C_strategy_x2C_office"  >
<path style="stroke: none; stroke-width: 1; stroke-dasharray: none; stroke-linecap: butt; stroke-dashoffset: 0; stroke-linejoin: miter; stroke-miterlimit: 4; fill: rgb(0,0,0); fill-rule: nonzero; opacity: 1;"  transform=" translate(-369.52, -159.85)" d="M 369.512 191.32 c 17.354 0 31.473 -14.113 31.473 -31.461 c 0 -17.361 -14.118 -31.486 -31.473 -31.486 c -17.348 0 -31.461 14.125 -31.461 31.486 C 338.051 177.207 352.164 191.32 369.512 191.32 z" stroke-linecap="round" />
</g>
</svg>