<?xml version="1.0" encoding="UTF-8" standalone="no" ?>
<!DOCTYPE svg PUBLIC "-//W3C//DTD SVG 1.1//EN" "http://www.w3.org/Graphics/SVG/1.1/DTD/svg11.dtd">
<svg xmlns="http://www.w3.org/2000/svg" xmlns:xlink="http://www.w3.org/1999/xlink" version="1.1" width="400" height="400" viewBox="0 0 400 400" xml:space="preserve">
<desc>Created with Fabric.js 3.6.2</desc>
<defs>
</defs>
<g transform="matrix(6.67 0 0 6.67 200 232.55)" id="work-business-solid-performance"  >
<path style="stroke: none; stroke-width: 1; stroke-dasharray: none; stroke-linecap: butt; stroke-dashoffset: 0; stroke-linejoin: miter; stroke-miterlimit: 4; fill: rgb(0,0,0); fill-rule: nonzero; opacity: 1;"  transform=" translate(-15, -19.77)" d="M 29 27.76562 H 27 v -16 a 2.002 2.002 0 0 0 -2 -2 H 23 a 2.002 2.002 0 0 0 -2 2 v 16 H 18 v -10 a 2.002 2.002 0 0 0 -2 -2 H 14 a 2.002 2.002 0 0 0 -2 2 v 10 H 9 v -4 a 2.002 2.002 0 0 0 -2 -2 H 5 a 2.002 2.002 0 0 0 -2 2 v 4 H 1 a 1 1 0 0 0 0 2 H 29 a 1 1 0 0 0 0 -2 Z" stroke-linecap="round" />
</g>
<g transform="matrix(6.67 0 0 6.67 188.33 165.77)" id="work-business-solid-performance"  >
<path style="stroke: none; stroke-width: 1; stroke-dasharray: none; stroke-linecap: butt; stroke-dashoffset: 0; stroke-linejoin: miter; stroke-miterlimit: 4; fill: rgb(0,0,0); fill-rule: nonzero; opacity: 1;"  transform=" translate(-13.25, -9.75)" d="M 4.752 19.49561 a 1.24591 1.24591 0 0 0 0.88379 -0.36622 L 20.49805 4.26709 V 6.25 a 1.25 1.25 0 0 0 2.5 0 v -5 a 1.24991 1.24991 0 0 0 -1.25 -1.25 h -5 a 1.25 1.25 0 0 0 0 2.5 H 18.73 L 3.86816 17.36182 A 1.25 1.25 0 0 0 4.752 19.49561 Z" stroke-linecap="round" />
</g>
</svg>